PathFileType	4	(X/Y/Z)	/Users/itak/Documents/Research/Walk-IL/dataset/trc/00348_00011.trc
DataRate	CameraRate	NumFrames	NumMarkers	Units	OrigDataRate	OrigDataStartFrame	OrigNumFrames
100.000000	100.000000	4	56	mm	100.000000	165	660
Frame#	Time	RPSI			LPSI			STRN			T10			C7			CLAV			RBAK			LBAK			LSHO			LUPA			LAEL			LAOL			LWTS			LWPS			LFRA			LHPS			LHTS			RSHO			RUPA			RAEL			RAOL			RWTS			RWPS			RFRA			RIFD			RHTS			RHPS			RBHD			LFHD			RFHD			LBHD			LHIP			RHIP			RASI			LASI			LKNE			LTHI			LANK			LTIP			LTOE			LMT1			LMT5			LHEE			RKNE			RANK			RTIP			RTOE			RMT1			RMT5			RHEE			RTHI			L3			LIFD			*53			*54			*55			
		X1	Y1	Z1	X2	Y2	Z2	X3	Y3	Z3	X4	Y4	Z4	X5	Y5	Z5	X6	Y6	Z6	X7	Y7	Z7	X8	Y8	Z8	X9	Y9	Z9	X10	Y10	Z10	X11	Y11	Z11	X12	Y12	Z12	X13	Y13	Z13	X14	Y14	Z14	X15	Y15	Z15	X16	Y16	Z16	X17	Y17	Z17	X18	Y18	Z18	X19	Y19	Z19	X20	Y20	Z20	X21	Y21	Z21	X22	Y22	Z22	X23	Y23	Z23	X24	Y24	Z24	X25	Y25	Z25	X26	Y26	Z26	X27	Y27	Z27	X28	Y28	Z28	X29	Y29	Z29	X30	Y30	Z30	X31	Y31	Z31	X32	Y32	Z32	X33	Y33	Z33	X34	Y34	Z34	X35	Y35	Z35	X36	Y36	Z36	X37	Y37	Z37	X38	Y38	Z38	X39	Y39	Z39	X40	Y40	Z40	X41	Y41	Z41	X42	Y42	Z42	X43	Y43	Z43	X44	Y44	Z44	X45	Y45	Z45	X46	Y46	Z46	X47	Y47	Z47	X48	Y48	Z48	X49	Y49	Z49	X50	Y50	Z50	X51	Y51	Z51	X52	Y52	Z52	X53	Y53	Z53	X54	Y54	Z54	X55	Y55	Z55	X56	Y56	Z56	

166	1.65	21.03335762023926	957.4986572265625	855.54931640625	-46.22454452514648	964.6889038085938	966.9968872070312	-203.8690795898438	1213.494873046875	784.1779174804688	4.346784114837646	1144.958251953125	907.7685546875	-34.16134262084961	1393.731079101562	889.6681518554688	-165.0077819824219	1338.966918945312	805.2685546875	37.53100967407227	1250.583251953125	859.8627319335938	-77.58353424072266	1361.696044921875	983.0386352539062	-179.3407745361328	1381.082153320312	986.2056884765625	-197.5047302246094	1265.604858398438	1059.049072265625	-216.9994354248047	1063.972290039062	1079.057739257812	-139.66552734375	1047.659790039062	1050.989624023438	-294.6263427734375	817.5796508789062	1027.222290039062	-276.6834106445312	811.7509155273438	1093.414672851562	-235.2173919677734	960.4556274414062	1090.438232421875	-273.1382751464844	740.4002685546875	1094.443115234375	-313.7004699707031	740.97998046875	1044.544311523438	3.760924816131592	1375.213989257812	722.0757446289062	43.02175903320312	1307.857788085938	675.0997924804688	39.51373672485352	1042.032470703125	625.2020263671875	25.43152046203613	1030.353759765625	717.5541381835938	-127.8081588745117	854.03466796875	584.6306762695312	-68.07447814941406	823.4520874023438	547.4677124023438	12.92977237701416	979.5332641601562	598.6129760742188	-181.3223571777344	692.0390625	553.6585083007812	-171.6570739746094	765.5863647460938	545.7464599609375	-105.3274230957031	748.1015014648438	532.3094482421875	-33.31915664672852	1597.720947265625	785.0867309570312	-241.8226776123047	1596.535400390625	768.9708862304688	-170.0969543457031	1590.655029296875	697.1199340820312	-113.2089920043945	1604.460327148438	905.1256713867188	-178.9109344482422	920.3341064453125	1011.898986816406	5.414077758789062	899.7481689453125	722.879638671875	-105.9181518554688	933.3264770507812	704.2762451171875	-246.9890747070312	948.0184326171875	897.5321655273438	-354.0438842773438	492.7821350097656	949.6605224609375	-320.4126281738281	619.3219604492188	964.3993530273438	-103.6264801025391	187.1165771484375	1145.367065429688	-242.1599578857422	328.1938171386719	1054.195678710938	-217.112548828125	54.33454895019531	1022.729064941406	-144.3059692382812	86.00070190429688	1012.871887207031	-192.5199279785156	103.4408721923828	1115.211547851562	-45.49975967407227	200.3478698730469	1099.058349609375	-118.3893203735352	440.3604431152344	769.8898315429688	-94.68128204345703	48.75351715087891	906.1876220703125	-138.7007446289062	321.0300598144531	796.7071533203125	-280.1213684082031	46.84121322631836	831.6390380859375	-261.466552734375	45.36484146118164	897.6167602539062	-163.4344635009766	38.14088439941406	831.54541015625	-84.37731170654297	53.76546478271484	973.6821899414062	-86.03752136230469	692.9379272460938	699.5580444335938	-5.46669340133667	1024.49609375	903.6748657226562	-297.8689270019531	659.9086303710938	1026.405395507812	nan	nan	nan	nan	nan	nan	nan	nan	nan	
167	1.66	15.1171703338623	957.9170532226562	852.9420776367188	-53.86460876464844	965.20166015625	963.3738403320312	-208.5180206298828	1214.167724609375	777.9459838867188	-1.098843216896057	1145.522338867188	904.4815063476562	-39.80230331420898	1394.186279296875	885.5947265625	-169.7170562744141	1339.532104492188	799.634033203125	32.20110321044922	1251.01513671875	856.406982421875	-84.2855224609375	1362.119995117188	978.3521118164062	-186.0220947265625	1381.580932617188	980.3901977539062	-204.82568359375	1266.187133789062	1053.209594726562	-224.1647338867188	1064.567138671875	1073.43212890625	-146.7345886230469	1048.28515625	1045.784301757812	-300.4126281738281	817.6318359375	1021.739501953125	-283.0791015625	812.1453857421875	1088.095336914062	-242.0915374755859	961.0567016601562	1084.919799804688	-279.2070922851562	740.5797119140625	1089.274047851562	-319.2911682128906	741.0814819335938	1039.107788085938	-0.03745833411812782	1375.716064453125	718.3305053710938	39.58893585205078	1308.2880859375	671.7129516601562	35.28293609619141	1042.480834960938	621.0962524414062	20.48542404174805	1030.71044921875	713.3204345703125	-134.8902282714844	857.6140747070312	578.7239379882812	-75.45528411865234	826.0485229492188	541.9114379882812	8.071193695068359	980.4473266601562	594.1095581054688	-191.4970245361328	696.8807983398438	546.748046875	-180.2236175537109	770.2410278320312	539.1549682617188	-114.1933822631836	751.4241943359375	526.2312622070312	-38.19319152832031	1598.251831054688	780.7489624023438	-246.4217834472656	1596.742065429688	762.5340576171875	-174.0233612060547	1590.865112304688	691.3468017578125	-119.2404556274414	1604.9619140625	899.9067993164062	-187.6656036376953	921.3145141601562	1005.671508789062	1.705382943153381	899.6331176757812	720.2567749023438	-109.0233764648438	933.2993774414062	699.6942138671875	-253.0092926025391	949.078369140625	890.1084594726562	-365.0938720703125	495.5190734863281	936.8053588867188	-330.8855590820312	621.8018188476562	953.4398803710938	-130.8270416259766	178.0551300048828	1133.7939453125	-261.1840209960938	326.1025390625	1041.885131835938	-250.7373046875	54.28918838500977	1007.5888671875	-175.6234283447266	80.98216247558594	999.4166259765625	-224.53271484375	101.0464401245117	1100.730712890625	-70.87296295166016	188.1477203369141	1088.87255859375	-119.025276184082	440.0669860839844	768.4617919921875	-94.66777801513672	48.81953430175781	906.1749877929688	-139.0692596435547	320.8443603515625	795.8689575195312	-280.1172180175781	46.83129501342773	831.5579223632812	-261.4585876464844	45.49554824829102	897.4793701171875	-163.3300476074219	38.12313842773438	831.4411010742188	-84.48158264160156	54.01692962646484	973.7454223632812	-88.53125	692.5477294921875	697.072509765625	-11.550048828125	1025.095703125	900.5009765625	-302.8235778808594	659.9016723632812	1021.425048828125	nan	nan	nan	nan	nan	nan	nan	nan	nan	
168	1.67	9.160457611083984	958.2985229492188	850.3920288085938	-61.58590698242188	965.640380859375	959.7191772460938	-213.1692352294922	1214.7255859375	771.6614990234375	-6.659379005432129	1145.954833984375	901.0960083007812	-45.44871139526367	1394.585205078125	881.5071411132812	-174.4428253173828	1339.98095703125	793.9658203125	26.85156440734863	1251.384521484375	852.9520263671875	-91.01567840576172	1362.432861328125	973.59716796875	-192.7276763916016	1381.964233398438	974.5150146484375	-212.1549377441406	1266.631469726562	1047.299926757812	-231.3443603515625	1065.02978515625	1067.76611328125	-153.8452606201172	1048.789916992188	1040.521362304688	-306.2272033691406	817.5874633789062	1016.218811035156	-289.4956359863281	812.4360961914062	1082.731201171875	-248.9644622802734	961.5296630859375	1079.364990234375	-285.3231506347656	740.633544921875	1084.03369140625	-324.9158630371094	741.0869750976562	1033.64404296875	-3.86053991317749	1376.116943359375	714.561279296875	36.16241455078125	1308.625854492188	668.3167114257812	31.18184280395508	1042.816772460938	617.051025390625	15.67713356018066	1030.968872070312	709.1602172851562	-141.6829833984375	861.0082397460938	572.9695434570312	-82.57376098632812	828.5113525390625	536.4657592773438	3.373474359512329	981.236572265625	589.6911010742188	-201.2319793701172	701.5393676757812	540.088134765625	-188.4257202148438	774.675048828125	532.783203125	-122.7120590209961	754.5892944335938	520.3311767578125	-43.05386734008789	1598.671997070312	776.4193115234375	-250.9924774169922	1596.901123046875	756.0811157226562	-177.9240875244141	1591.025268554688	685.5794067382812	-125.2620315551758	1605.342163085938	894.6765747070312	-196.3342590332031	922.31103515625	999.4882202148438	-1.968520760536194	899.4732666015625	717.7265625	-111.9767837524414	933.1832885742188	695.2020874023438	-259.1072998046875	950.0650634765625	882.649169921875	-375.380615234375	498.033203125	924.1182250976562	-340.8568115234375	624.0828857421875	942.5205078125	-158.353271484375	168.4929656982422	1121.132568359375	-279.9576110839844	323.4804382324219	1029.146484375	-283.8600769042969	54.23125076293945	991.153076171875	-206.6899871826172	75.88249206542969	984.7028198242188	-256.2261047363281	98.34896850585938	1085.0673828125	-96.7994384765625	175.4615173339844	1077.607177734375	-119.6431503295898	439.742431640625	766.967529296875	-94.65788269042969	48.9010124206543	906.1638793945312	-139.4584197998047	320.6705932617188	794.9947509765625	-280.1201782226562	46.82088851928711	831.4749755859375	-261.4703063964844	45.62451934814453	897.3404541015625	-163.2383880615234	38.10258102416992	831.3427734375	-84.59004211425781	54.35709381103516	973.8080444335938	-90.96784210205078	692.15380859375	694.5941162109375	-17.69082450866699	1025.630126953125	897.3519287109375	-307.8459777832031	659.785888671875	1016.417846679688	nan	nan	nan	nan	nan	nan	nan	nan	nan	
169	1.68	3.151305913925171	958.6156616210938	847.901611328125	-69.3955078125	966.0072021484375	956.0238647460938	-217.8056945800781	1215.14697265625	765.3277587890625	-12.37474060058594	1146.236938476562	897.5794067382812	-51.10608673095703	1394.922485351562	877.3880615234375	-179.1895446777344	1340.30126953125	788.2639770507812	21.47937965393066	1251.680786132812	849.5008544921875	-97.78330230712891	1362.621215820312	968.7546997070312	-199.4586639404297	1382.2236328125	968.5797729492188	-219.4936370849609	1266.936401367188	1041.321044921875	-238.5232086181641	1065.352905273438	1062.041870117188	-160.9540252685547	1049.191284179688	1035.232177734375	-312.0745544433594	817.4462280273438	1010.660034179688	-295.9338989257812	812.6183471679688	1077.324829101562	-255.8390960693359	961.87060546875	1073.761108398438	-291.4743041992188	740.6324462890625	1078.79345703125	-330.5814514160156	740.9833984375	1028.164794921875	-7.710422992706299	1376.400512695312	710.7603149414062	32.73753356933594	1308.8544921875	664.905517578125	27.19430351257324	1043.027099609375	613.0490112304688	11.01166152954102	1031.1142578125	705.0587768554688	-148.1956634521484	864.1795043945312	567.3692016601562	-89.44351196289062	830.8129272460938	531.1158447265625	-1.18269419670105	981.8870239257812	585.3384399414062	-210.5224761962891	705.9642944335938	533.6685180664062	-196.2738189697266	778.851806640625	526.6309814453125	-130.8784637451172	757.5673217773438	514.5864868164062	-47.89888000488281	1598.970092773438	772.0772094726562	-255.5424499511719	1597.000854492188	749.6052856445312	-181.8114471435547	1591.129028320312	679.813720703125	-131.2827606201172	1605.599243164062	889.4354858398438	-204.967041015625	923.2789306640625	993.301025390625	-5.610817432403564	899.2567138671875	715.2886352539062	-114.8361511230469	932.9794921875	690.7486572265625	-265.2753601074219	950.95556640625	875.1357421875	-384.9400634765625	500.2614135742188	911.666259765625	-350.3463745117188	626.1387939453125	931.6898193359375	-186.1243743896484	158.5162353515625	1107.298706054688	-298.4938049316406	320.3522644042969	1015.955627441406	-316.236083984375	54.19120788574219	973.2487182617188	-237.3509521484375	70.82932281494141	968.6179809570312	-287.4817810058594	95.35990905761719	1068.120727539062	-123.2095413208008	162.4554290771484	1065.178344726562	-120.249267578125	439.3939208984375	765.42431640625	-94.65380096435547	49.001708984375	906.1586303710938	-139.8565368652344	320.5021057128906	794.0765380859375	-280.1280212402344	46.81447219848633	831.3837280273438	-261.5033874511719	45.74491119384766	897.2073364257812	-163.1645050048828	38.07600402832031	831.2550048828125	-84.70023345947266	54.78123474121094	973.865478515625	-93.32920837402344	691.738525390625	692.1338500976562	-23.88442420959473	1026.095581054688	894.2341918945312	-312.9576416015625	659.5606079101562	1011.39208984375	nan	nan	nan	nan	nan	nan	nan	nan	nan	
